<?xml version="1.0" standalone="no"?>
<!DOCTYPE svg PUBLIC "-//W3C//DTD SVG 20010904//EN"
 "http://www.w3.org/TR/2001/REC-SVG-20010904/DTD/svg10.dtd">
<svg version="1.0" xmlns="http://www.w3.org/2000/svg"
 width="421.000000pt" height="421.000000pt" viewBox="0 0 421.000000 421.000000"
 preserveAspectRatio="xMidYMid meet">
<metadata>
Created by potrace 1.15, written by Peter Selinger 2001-2017
</metadata>
<g transform="translate(0.000000,421.000000) scale(0.100000,-0.100000)"
fill="#000000" stroke="none">
<path d="M3237 4124 c-7 -115 -12 -119 -135 -128 -243 -16 -300 -30 -478 -118
-53 -26 -159 -117 -157 -135 0 -8 -5 -12 -12 -9 -22 8 -136 -128 -127 -153 2
-8 0 -11 -5 -8 -6 4 -23 -19 -39 -51 -16 -31 -35 -63 -41 -70 -7 -7 -16 -31
-19 -53 -4 -21 -10 -39 -14 -39 -4 0 -15 -33 -25 -72 -10 -40 -20 -80 -23 -88
-3 -11 -2 -12 6 -5 15 14 53 125 47 135 -3 5 -1 11 5 15 5 3 10 20 10 36 0 17
4 28 9 25 10 -7 37 53 33 73 -2 8 2 12 11 8 9 -3 14 1 13 11 -1 11 5 16 18 14
14 -3 17 1 12 14 -4 10 -4 15 0 11 4 -4 20 4 34 18 28 27 60 26 60 -2 0 -9 27
11 62 47 l62 62 17 -39 c9 -21 19 -46 23 -55 8 -27 32 -21 57 14 29 41 82 88
91 82 4 -3 14 -27 22 -53 17 -58 36 -91 53 -91 7 0 13 3 13 8 0 4 16 24 35 45
36 40 55 41 55 4 0 -37 14 -51 38 -38 11 6 28 19 38 28 32 33 77 62 85 57 5
-3 9 -30 9 -60 0 -68 14 -70 88 -14 29 22 59 40 66 40 9 0 17 -17 21 -50 4
-27 9 -50 12 -50 3 0 25 18 49 40 24 22 48 40 52 40 5 0 10 -28 11 -62 5 -133
9 -139 48 -69 26 47 49 68 61 57 10 -10 11 -87 2 -81 -6 4 -11 -17 -11 -52 -1
-32 -3 -75 -4 -96 -2 -33 0 -37 17 -31 17 5 19 2 13 -33 -4 -21 -15 -63 -25
-93 -10 -30 -27 -89 -39 -130 -13 -41 -26 -86 -31 -100 -5 -14 -16 -56 -25
-95 -9 -38 -20 -79 -26 -90 -23 -48 -77 -231 -70 -238 4 -4 23 14 41 40 38 54
357 375 389 393 20 10 65 14 114 9 25 -3 57 -52 61 -94 5 -52 16 -56 16 -5 0
41 -31 108 -51 111 -5 1 -13 2 -18 3 -5 0 -13 4 -17 9 -4 4 -22 7 -39 7 l-31
0 7 58 c4 31 19 115 33 187 32 158 32 162 1 280 -36 138 -88 233 -188 341 -56
60 -56 62 -37 79 15 13 17 22 10 36 -6 10 -10 20 -10 23 0 12 42 5 73 -11 18
-9 35 -16 40 -15 4 1 7 -2 7 -7 0 -9 46 -42 64 -45 6 -1 34 -14 63 -29 54 -28
79 -22 49 12 -19 21 -21 47 -3 54 6 2 57 1 112 -4 55 -4 104 -4 108 1 5 4 -10
26 -32 48 -46 46 -51 62 -18 63 45 1 142 10 155 14 23 8 12 23 -40 56 -67 43
-138 107 -138 125 0 12 -65 14 -384 14 l-383 0 -6 -86z m164 -74 c71 -22 105
-52 94 -83 -4 -10 1 -17 14 -22 12 -3 21 -11 21 -16 0 -5 7 -9 15 -9 13 0 14
-4 5 -20 -15 -27 -37 -25 -88 9 -24 15 -76 39 -115 51 -123 39 -122 38 -105
58 8 9 18 25 21 35 9 23 53 22 138 -3z"/>
<path d="M3785 2583 c-71 -62 -163 -96 -201 -75 -16 9 -15 10 5 17 11 3 19 10
16 15 -9 15 -52 -10 -64 -37 -18 -40 -13 -80 11 -97 56 -39 138 -3 138 61 0
23 4 33 13 30 19 -7 13 -84 -10 -115 -23 -30 -95 -56 -133 -47 -45 11 -80 54
-80 99 0 21 -2 37 -5 34 -5 -5 -22 -121 -31 -213 -3 -32 -25 -141 -50 -241 -8
-34 -12 -68 -9 -75 3 -8 -10 -26 -31 -43 -64 -51 -145 -84 -241 -100 -108 -18
-178 -6 -281 45 -61 31 -64 31 -125 20 -34 -7 -92 -17 -129 -23 -49 -8 -65
-14 -61 -24 7 -19 -14 -18 -24 1 -7 12 -11 12 -23 -6 -8 -11 -23 -30 -33 -42
-10 -11 -20 -31 -23 -44 -4 -13 -10 -23 -15 -23 -10 0 -119 -163 -119 -178 0
-6 -4 -12 -8 -14 -10 -4 -37 -48 -101 -166 l-50 -93 25 -9 c14 -6 30 -10 36
-10 7 0 8 -12 4 -32 -4 -18 -9 -98 -12 -178 -2 -80 -6 -174 -9 -208 -4 -56 -3
-62 11 -51 12 10 15 37 14 138 -1 167 18 321 39 322 87 5 231 -25 231 -48 0
-9 -9 -46 -20 -82 -10 -36 -20 -87 -22 -113 -2 -25 -6 -44 -9 -42 -4 2 -7 -29
-7 -70 0 -41 -3 -89 -7 -108 -7 -30 -102 -267 -111 -278 -3 -2 -16 8 -29 22
-13 14 -21 29 -17 32 3 4 2 10 -4 14 -6 4 -16 16 -23 27 -11 19 -11 18 -6 -5
4 -14 17 -48 31 -76 29 -62 29 -65 4 -114 l-20 -39 26 -20 c15 -12 33 -21 41
-21 18 0 16 -18 -21 -150 -29 -105 -33 -150 -13 -150 12 0 30 58 42 130 3 25
31 132 41 160 5 12 8 12 19 -4 14 -18 15 -18 21 -1 7 18 8 18 15 -1 7 -18 8
-18 8 1 1 28 54 46 155 52 107 7 226 49 244 87 7 14 18 26 23 26 6 0 8 4 5 8
-8 14 32 52 54 52 11 0 20 5 20 10 0 6 4 10 9 10 4 0 8 -30 8 -68 -1 -113 48
-231 117 -280 62 -44 171 -85 218 -80 36 3 38 2 38 -25 0 -15 -4 -26 -9 -23
-5 4 -4 -7 2 -24 7 -18 19 -30 29 -30 15 0 18 9 18 58 0 100 17 124 55 82 10
-11 21 -20 26 -20 4 0 7 33 6 73 0 39 0 134 1 210 l2 137 47 33 c64 44 70 52
115 158 22 52 60 141 85 199 25 58 53 128 63 155 l18 50 54 5 c51 5 53 6 56
38 2 18 -6 61 -17 95 -12 35 -24 101 -27 148 -5 71 -11 90 -33 119 -15 19 -45
64 -67 100 -48 79 -171 205 -247 254 -31 20 -57 43 -57 51 0 14 16 104 47 260
9 44 18 92 21 108 5 31 8 32 54 12 102 -42 225 46 215 153 -4 40 -2 46 42 87
55 53 52 67 -4 18z m-129 -1424 c24 -6 44 -16 44 -22 0 -16 -60 -210 -73 -236
-7 -13 -11 -33 -9 -44 2 -12 -1 -17 -7 -13 -6 4 -11 2 -11 -5 0 -6 -20 -53
-44 -104 -32 -69 -53 -99 -82 -121 -22 -16 -41 -31 -44 -35 -8 -9 -237 -167
-260 -179 -23 -12 -24 -12 -98 43 -46 34 -92 88 -92 109 0 8 204 185 273 237
28 21 50 46 53 61 2 14 10 39 16 55 15 42 37 163 38 208 0 32 3 37 23 37 12 0
29 5 37 10 21 13 181 13 236 -1z m-676 -660 c0 -32 152 -141 222 -160 37 -10
48 -20 76 -66 45 -77 49 -97 21 -117 -62 -43 -223 16 -284 104 -34 48 -65 157
-65 224 0 42 2 47 15 36 8 -7 15 -16 15 -21z"/>
</g>
</svg>
